<mxfile host="app.diagrams.net" modified="2022-03-26T19:35:30.369Z" agent="5.0 (Windows NT 10.0; Win64; x64) AppleWebKit/537.36 (KHTML, like Gecko) Chrome/99.0.4844.74 Safari/537.36 Edg/99.0.1150.52" etag="uf4Qpuhc4x76WY28Ni4H" version="17.2.4" type="github">
  <diagram id="zvPepNI3hfkKhgqMAt4_" name="Page-1">
    <mxGraphModel dx="903" dy="476" grid="1" gridSize="10" guides="1" tooltips="1" connect="1" arrows="1" fold="1" page="1" pageScale="1" pageWidth="827" pageHeight="1169" math="0" shadow="0">
      <root>
        <mxCell id="0" />
        <mxCell id="1" parent="0" />
        <mxCell id="_yhk54UDYabE01hW2xC4-4" value="&lt;p class=&quot;MsoNormal&quot; align=&quot;left&quot; style=&quot;text-align: left ; font-size: 14px&quot;&gt;&lt;font style=&quot;font-size: 14px&quot;&gt;Cliente (&lt;u&gt;ID&lt;/u&gt;, NomeCliente, CognomeCliente*, Tipo, ContattoPreferito , IndirizzoResidenza , IndirizzoFatturazione )&lt;/font&gt;&lt;/p&gt;&lt;font style=&quot;font-size: 14px&quot;&gt;&lt;br style=&quot;color: rgb(0 , 0 , 0) ; font-family: &amp;#34;helvetica&amp;#34; ; font-size: 14px ; font-style: normal ; font-weight: 400 ; letter-spacing: normal ; text-align: left ; text-indent: 0px ; text-transform: none ; word-spacing: 0px ; background-color: rgb(248 , 249 , 250)&quot;&gt;&lt;br&gt;&lt;br&gt;&lt;/font&gt;" style="text;whiteSpace=wrap;html=1;" vertex="1" parent="1">
          <mxGeometry x="63" y="352" width="714" height="50" as="geometry" />
        </mxCell>
        <mxCell id="_yhk54UDYabE01hW2xC4-1" value="" style="rounded=0;whiteSpace=wrap;html=1;fillColor=none;" vertex="1" parent="1">
          <mxGeometry x="494" y="372" width="125" height="20" as="geometry" />
        </mxCell>
        <mxCell id="_yhk54UDYabE01hW2xC4-3" value="&lt;span style=&quot;color: rgb(0, 0, 0); font-family: helvetica; font-size: 14px; font-style: normal; font-weight: 400; letter-spacing: normal; text-align: left; text-indent: 0px; text-transform: none; word-spacing: 0px; background-color: rgb(248, 249, 250); display: inline; float: none;&quot;&gt;Indirizzo (&lt;/span&gt;&lt;u style=&quot;color: rgb(0, 0, 0); font-family: helvetica; font-size: 14px; font-style: normal; font-weight: 400; letter-spacing: normal; text-align: left; text-indent: 0px; text-transform: none; word-spacing: 0px; background-color: rgb(248, 249, 250);&quot;&gt;CodiceIndirizzo&lt;/u&gt;&lt;span style=&quot;color: rgb(0, 0, 0); font-family: helvetica; font-size: 14px; font-style: normal; font-weight: 400; letter-spacing: normal; text-align: left; text-indent: 0px; text-transform: none; word-spacing: 0px; background-color: rgb(248, 249, 250); display: inline; float: none;&quot;&gt;, Via, NumeroCivico, CittÃ , Nazione)&lt;/span&gt;" style="text;whiteSpace=wrap;html=1;" vertex="1" parent="1">
          <mxGeometry x="215" y="445" width="391.5" height="30" as="geometry" />
        </mxCell>
        <mxCell id="_yhk54UDYabE01hW2xC4-2" value="" style="rounded=0;whiteSpace=wrap;html=1;fillColor=none;" vertex="1" parent="1">
          <mxGeometry x="626" y="372" width="132" height="20" as="geometry" />
        </mxCell>
        <mxCell id="_yhk54UDYabE01hW2xC4-5" value="&lt;p class=&quot;MsoNormal&quot; align=&quot;left&quot; style=&quot;text-align: left ; font-size: 14px&quot;&gt;&lt;font style=&quot;font-size: 14px&quot;&gt;Referente (&lt;u&gt;CodiceFiscale&lt;/u&gt;, NomeReferente, CognomeReferente, ContattoPreferito , ClienteRappresentato )&lt;/font&gt;&lt;/p&gt;&lt;font style=&quot;font-size: 14px&quot;&gt;&lt;br style=&quot;color: rgb(0 , 0 , 0) ; font-family: &amp;#34;helvetica&amp;#34; ; font-size: 14px ; font-style: normal ; font-weight: 400 ; letter-spacing: normal ; text-align: left ; text-indent: 0px ; text-transform: none ; word-spacing: 0px ; background-color: rgb(248 , 249 , 250)&quot;&gt;&lt;br&gt;&lt;br&gt;&lt;/font&gt;" style="text;whiteSpace=wrap;html=1;" vertex="1" parent="1">
          <mxGeometry x="76" y="192" width="670" height="40" as="geometry" />
        </mxCell>
        <mxCell id="_yhk54UDYabE01hW2xC4-6" value="&lt;br class=&quot;Apple-interchange-newline&quot;&gt;&lt;span style=&quot;color: rgb(0 , 0 , 0) ; font-family: &amp;#34;helvetica&amp;#34; ; font-size: 14px ; font-style: normal ; font-weight: 400 ; letter-spacing: normal ; text-align: left ; text-indent: 0px ; text-transform: none ; word-spacing: 0px ; background-color: rgb(248 , 249 , 250) ; display: inline ; float: none&quot;&gt;ContattoCliente (&lt;/span&gt;&lt;u style=&quot;color: rgb(0 , 0 , 0) ; font-family: &amp;#34;helvetica&amp;#34; ; font-size: 14px ; font-style: normal ; font-weight: 400 ; letter-spacing: normal ; text-align: left ; text-indent: 0px ; text-transform: none ; word-spacing: 0px ; background-color: rgb(248 , 249 , 250)&quot;&gt;RecapitoCliente&lt;/u&gt;&lt;span style=&quot;color: rgb(0 , 0 , 0) ; font-family: &amp;#34;helvetica&amp;#34; ; font-size: 14px ; font-style: normal ; font-weight: 400 ; letter-spacing: normal ; text-align: left ; text-indent: 0px ; text-transform: none ; word-spacing: 0px ; background-color: rgb(248 , 249 , 250) ; display: inline ; float: none&quot;&gt;, MezzoComunicazione, Cliente )&lt;/span&gt;" style="text;whiteSpace=wrap;html=1;" vertex="1" parent="1">
          <mxGeometry x="205.5" y="273" width="421.5" height="40" as="geometry" />
        </mxCell>
        <mxCell id="_yhk54UDYabE01hW2xC4-7" value="&lt;span style=&quot;color: rgb(0 , 0 , 0) ; font-family: &amp;#34;helvetica&amp;#34; ; font-size: 14px ; font-style: normal ; font-weight: 400 ; letter-spacing: normal ; text-align: left ; text-indent: 0px ; text-transform: none ; word-spacing: 0px ; background-color: rgb(248 , 249 , 250) ; display: inline ; float: none&quot;&gt;ContattoReferente (&lt;/span&gt;&lt;u style=&quot;color: rgb(0 , 0 , 0) ; font-family: &amp;#34;helvetica&amp;#34; ; font-size: 14px ; font-style: normal ; font-weight: 400 ; letter-spacing: normal ; text-align: left ; text-indent: 0px ; text-transform: none ; word-spacing: 0px ; background-color: rgb(248 , 249 , 250)&quot;&gt;RecapitoReferente&lt;/u&gt;&lt;span style=&quot;color: rgb(0 , 0 , 0) ; font-family: &amp;#34;helvetica&amp;#34; ; font-size: 14px ; font-style: normal ; font-weight: 400 ; letter-spacing: normal ; text-align: left ; text-indent: 0px ; text-transform: none ; word-spacing: 0px ; background-color: rgb(248 , 249 , 250) ; display: inline ; float: none&quot;&gt;, MezzoComunicazione , Referente )&lt;/span&gt;" style="text;whiteSpace=wrap;html=1;" vertex="1" parent="1">
          <mxGeometry x="176" y="126" width="470" height="30" as="geometry" />
        </mxCell>
        <mxCell id="_yhk54UDYabE01hW2xC4-8" value="&lt;span style=&quot;color: rgb(0 , 0 , 0) ; font-family: &amp;#34;helvetica&amp;#34; ; font-size: 14px ; font-style: normal ; font-weight: 400 ; letter-spacing: normal ; text-align: left ; text-indent: 0px ; text-transform: none ; word-spacing: 0px ; background-color: rgb(248 , 249 , 250) ; display: inline ; float: none&quot;&gt;Ordine (&lt;/span&gt;&lt;u style=&quot;color: rgb(0 , 0 , 0) ; font-family: &amp;#34;helvetica&amp;#34; ; font-size: 14px ; font-style: normal ; font-weight: 400 ; letter-spacing: normal ; text-align: left ; text-indent: 0px ; text-transform: none ; word-spacing: 0px ; background-color: rgb(248 , 249 , 250)&quot;&gt;CodiceOrdine&lt;/u&gt;&lt;span style=&quot;color: rgb(0 , 0 , 0) ; font-family: &amp;#34;helvetica&amp;#34; ; font-size: 14px ; font-style: normal ; font-weight: 400 ; letter-spacing: normal ; text-align: left ; text-indent: 0px ; text-transform: none ; word-spacing: 0px ; background-color: rgb(248 , 249 , 250) ; display: inline ; float: none&quot;&gt;, Referente* , Contatto, Stato, Cliente , IndirizzoSpedizione , DataOrdine)&lt;/span&gt;" style="text;whiteSpace=wrap;html=1;" vertex="1" parent="1">
          <mxGeometry x="116" y="526" width="601" height="40" as="geometry" />
        </mxCell>
        <mxCell id="_yhk54UDYabE01hW2xC4-9" value="&lt;span style=&quot;color: rgb(0 , 0 , 0) ; font-family: &amp;#34;helvetica&amp;#34; ; font-size: 14px ; font-style: normal ; font-weight: 400 ; letter-spacing: normal ; text-align: left ; text-indent: 0px ; text-transform: none ; word-spacing: 0px ; background-color: rgb(248 , 249 , 250) ; display: inline ; float: none&quot;&gt;Pacco (&lt;/span&gt;&lt;u style=&quot;color: rgb(0 , 0 , 0) ; font-family: &amp;#34;helvetica&amp;#34; ; font-size: 14px ; font-style: normal ; font-weight: 400 ; letter-spacing: normal ; text-align: left ; text-indent: 0px ; text-transform: none ; word-spacing: 0px ; background-color: rgb(248 , 249 , 250)&quot;&gt;CodicePacco&lt;/u&gt;&lt;span style=&quot;color: rgb(0 , 0 , 0) ; font-family: &amp;#34;helvetica&amp;#34; ; font-size: 14px ; font-style: normal ; font-weight: 400 ; letter-spacing: normal ; text-align: left ; text-indent: 0px ; text-transform: none ; word-spacing: 0px ; background-color: rgb(248 , 249 , 250) ; display: inline ; float: none&quot;&gt;, Ordine )&lt;/span&gt;" style="text;whiteSpace=wrap;html=1;" vertex="1" parent="1">
          <mxGeometry x="564" y="606" width="210" height="30" as="geometry" />
        </mxCell>
        <mxCell id="_yhk54UDYabE01hW2xC4-10" value="&lt;span style=&quot;color: rgb(0 , 0 , 0) ; font-family: &amp;#34;helvetica&amp;#34; ; font-size: 14px ; font-style: normal ; font-weight: 400 ; letter-spacing: normal ; text-align: left ; text-indent: 0px ; text-transform: none ; word-spacing: 0px ; background-color: rgb(248 , 249 , 250) ; display: inline ; float: none&quot;&gt;Fornitore (&lt;/span&gt;&lt;u style=&quot;color: rgb(0 , 0 , 0) ; font-family: &amp;#34;helvetica&amp;#34; ; font-size: 14px ; font-style: normal ; font-weight: 400 ; letter-spacing: normal ; text-align: left ; text-indent: 0px ; text-transform: none ; word-spacing: 0px ; background-color: rgb(248 , 249 , 250)&quot;&gt;CodiceFornitore&lt;/u&gt;&lt;span style=&quot;color: rgb(0 , 0 , 0) ; font-family: &amp;#34;helvetica&amp;#34; ; font-size: 14px ; font-style: normal ; font-weight: 400 ; letter-spacing: normal ; text-align: left ; text-indent: 0px ; text-transform: none ; word-spacing: 0px ; background-color: rgb(248 , 249 , 250) ; display: inline ; float: none&quot;&gt;, NomeFornitore, CF, IndirizzoSede )&lt;/span&gt;" style="text;whiteSpace=wrap;html=1;" vertex="1" parent="1">
          <mxGeometry x="218" y="846" width="401" height="30" as="geometry" />
        </mxCell>
        <mxCell id="_yhk54UDYabE01hW2xC4-11" value="&lt;p class=&quot;MsoNormal&quot; style=&quot;font-size: 14px&quot;&gt;&lt;font style=&quot;font-size: 14px&quot;&gt;Fornitura (&lt;u&gt;CodiceFornitura,&lt;/u&gt; &lt;u&gt;Fornitore&lt;/u&gt; &lt;u&gt;,&lt;/u&gt; &lt;u&gt;Pianta&lt;/u&gt;&amp;nbsp;, Data, QuantitÃ )&lt;/font&gt;&lt;/p&gt;&lt;font style=&quot;font-size: 14px&quot;&gt;&lt;br style=&quot;color: rgb(0 , 0 , 0) ; font-family: &amp;#34;helvetica&amp;#34; ; font-size: 14px ; font-style: normal ; font-weight: 400 ; letter-spacing: normal ; text-align: left ; text-indent: 0px ; text-transform: none ; word-spacing: 0px ; background-color: rgb(248 , 249 , 250)&quot;&gt;&lt;br&gt;&lt;br&gt;&lt;/font&gt;" style="text;whiteSpace=wrap;html=1;" vertex="1" parent="1">
          <mxGeometry x="377" y="911" width="400" height="40" as="geometry" />
        </mxCell>
        <mxCell id="_yhk54UDYabE01hW2xC4-12" value="&lt;span style=&quot;color: rgb(0, 0, 0); font-family: helvetica; font-size: 14px; font-style: normal; font-weight: 400; letter-spacing: normal; text-align: left; text-indent: 0px; text-transform: none; word-spacing: 0px; background-color: rgb(248, 249, 250); display: inline; float: none;&quot;&gt;Pianta (&lt;/span&gt;&lt;u style=&quot;color: rgb(0, 0, 0); font-family: helvetica; font-size: 14px; font-style: normal; font-weight: 400; letter-spacing: normal; text-align: left; text-indent: 0px; text-transform: none; word-spacing: 0px; background-color: rgb(248, 249, 250);&quot;&gt;CodicePianta&lt;/u&gt;&lt;span style=&quot;color: rgb(0, 0, 0); font-family: helvetica; font-size: 14px; font-style: normal; font-weight: 400; letter-spacing: normal; text-align: left; text-indent: 0px; text-transform: none; word-spacing: 0px; background-color: rgb(248, 249, 250); display: inline; float: none;&quot;&gt;, NomeComune, NomeLatino, Giacenza)&lt;/span&gt;" style="text;whiteSpace=wrap;html=1;" vertex="1" parent="1">
          <mxGeometry x="77" y="686" width="395" height="30" as="geometry" />
        </mxCell>
        <mxCell id="_yhk54UDYabE01hW2xC4-13" value="&lt;span style=&quot;color: rgb(0, 0, 0); font-family: helvetica; font-size: 14px; font-style: normal; font-weight: 400; letter-spacing: normal; text-align: left; text-indent: 0px; text-transform: none; word-spacing: 0px; background-color: rgb(248, 249, 250); display: inline; float: none;&quot;&gt;TipoPianta (&lt;/span&gt;&lt;u style=&quot;color: rgb(0, 0, 0); font-family: helvetica; font-size: 14px; font-style: normal; font-weight: 400; letter-spacing: normal; text-align: left; text-indent: 0px; text-transform: none; word-spacing: 0px; background-color: rgb(248, 249, 250);&quot;&gt;Tipo&lt;/u&gt;&lt;span style=&quot;color: rgb(0, 0, 0); font-family: helvetica; font-size: 14px; font-style: normal; font-weight: 400; letter-spacing: normal; text-align: left; text-indent: 0px; text-transform: none; word-spacing: 0px; background-color: rgb(248, 249, 250); display: inline; float: none;&quot;&gt;)&lt;/span&gt;" style="text;whiteSpace=wrap;html=1;" vertex="1" parent="1">
          <mxGeometry x="75.5" y="846" width="130" height="30" as="geometry" />
        </mxCell>
        <mxCell id="_yhk54UDYabE01hW2xC4-14" value="&lt;span style=&quot;color: rgb(0, 0, 0); font-family: helvetica; font-size: 14px; font-style: normal; font-weight: 400; letter-spacing: normal; text-align: left; text-indent: 0px; text-transform: none; word-spacing: 0px; background-color: rgb(248, 249, 250); display: inline; float: none;&quot;&gt;Colorito (&lt;/span&gt;&lt;u style=&quot;color: rgb(0, 0, 0); font-family: helvetica; font-size: 14px; font-style: normal; font-weight: 400; letter-spacing: normal; text-align: left; text-indent: 0px; text-transform: none; word-spacing: 0px; background-color: rgb(248, 249, 250);&quot;&gt;Colore&lt;/u&gt;&lt;span style=&quot;color: rgb(0, 0, 0); font-family: helvetica; font-size: 14px; font-style: normal; font-weight: 400; letter-spacing: normal; text-align: left; text-indent: 0px; text-transform: none; word-spacing: 0px; background-color: rgb(248, 249, 250); display: inline; float: none;&quot;&gt;)&lt;/span&gt;" style="text;whiteSpace=wrap;html=1;" vertex="1" parent="1">
          <mxGeometry x="654" y="846" width="130" height="30" as="geometry" />
        </mxCell>
        <mxCell id="_yhk54UDYabE01hW2xC4-15" value="&lt;p class=&quot;MsoNormal&quot; style=&quot;font-size: 14px&quot;&gt;&lt;font style=&quot;font-size: 14px&quot;&gt;Prezzo (&amp;nbsp;&lt;u&gt;Pianta&lt;/u&gt; &lt;u&gt;,&lt;/u&gt; &lt;u&gt;DataInizio&lt;/u&gt;, DataFine*, Valore, Tipo)&lt;/font&gt;&lt;/p&gt;&lt;font style=&quot;font-size: 14px&quot;&gt;&lt;br style=&quot;color: rgb(0 , 0 , 0) ; font-family: &amp;#34;helvetica&amp;#34; ; font-size: 14px ; font-style: normal ; font-weight: 400 ; letter-spacing: normal ; text-align: left ; text-indent: 0px ; text-transform: none ; word-spacing: 0px ; background-color: rgb(248 , 249 , 250)&quot;&gt;&lt;br&gt;&lt;br&gt;&lt;/font&gt;" style="text;whiteSpace=wrap;html=1;" vertex="1" parent="1">
          <mxGeometry x="260" y="752" width="340" height="40" as="geometry" />
        </mxCell>
        <mxCell id="_yhk54UDYabE01hW2xC4-16" value="&lt;span style=&quot;color: rgb(0 , 0 , 0) ; font-family: &amp;#34;helvetica&amp;#34; ; font-size: 14px ; font-style: normal ; font-weight: 400 ; letter-spacing: normal ; text-align: left ; text-indent: 0px ; text-transform: none ; word-spacing: 0px ; background-color: rgb(248 , 249 , 250)&quot;&gt;Inizializzazione (&amp;nbsp;&lt;/span&gt;&lt;u style=&quot;color: rgb(0 , 0 , 0) ; font-family: &amp;#34;helvetica&amp;#34; ; font-size: 14px ; font-style: normal ; font-weight: 400 ; letter-spacing: normal ; text-align: left ; text-indent: 0px ; text-transform: none ; word-spacing: 0px ; background-color: rgb(248 , 249 , 250)&quot;&gt;Ordine&lt;/u&gt;&lt;span style=&quot;color: rgb(0 , 0 , 0) ; font-family: &amp;#34;helvetica&amp;#34; ; font-size: 14px ; font-style: normal ; font-weight: 400 ; letter-spacing: normal ; text-align: left ; text-indent: 0px ; text-transform: none ; word-spacing: 0px ; background-color: rgb(248 , 249 , 250)&quot;&gt; &lt;/span&gt;&lt;u style=&quot;color: rgb(0 , 0 , 0) ; font-family: &amp;#34;helvetica&amp;#34; ; font-size: 14px ; font-style: normal ; font-weight: 400 ; letter-spacing: normal ; text-align: left ; text-indent: 0px ; text-transform: none ; word-spacing: 0px ; background-color: rgb(248 , 249 , 250)&quot;&gt;,&lt;/u&gt;&lt;span style=&quot;color: rgb(0 , 0 , 0) ; font-family: &amp;#34;helvetica&amp;#34; ; font-size: 14px ; font-style: normal ; font-weight: 400 ; letter-spacing: normal ; text-align: left ; text-indent: 0px ; text-transform: none ; word-spacing: 0px ; background-color: rgb(248 , 249 , 250)&quot;&gt; &lt;/span&gt;&lt;u style=&quot;color: rgb(0 , 0 , 0) ; font-family: &amp;#34;helvetica&amp;#34; ; font-size: 14px ; font-style: normal ; font-weight: 400 ; letter-spacing: normal ; text-align: left ; text-indent: 0px ; text-transform: none ; word-spacing: 0px ; background-color: rgb(248 , 249 , 250)&quot;&gt;Pianta&lt;/u&gt;&lt;span style=&quot;color: rgb(0 , 0 , 0) ; font-family: &amp;#34;helvetica&amp;#34; ; font-size: 14px ; font-style: normal ; font-weight: 400 ; letter-spacing: normal ; text-align: left ; text-indent: 0px ; text-transform: none ; word-spacing: 0px ; background-color: rgb(248 , 249 , 250)&quot;&gt;&amp;nbsp;&lt;/span&gt;&lt;span style=&quot;color: rgb(0 , 0 , 0) ; font-family: &amp;#34;helvetica&amp;#34; ; font-size: 14px ; font-style: normal ; font-weight: 400 ; letter-spacing: normal ; text-align: left ; text-indent: 0px ; text-transform: none ; word-spacing: 0px ; background-color: rgb(248 , 249 , 250)&quot;&gt;, QuantitÃ )&lt;/span&gt;" style="text;whiteSpace=wrap;html=1;" vertex="1" parent="1">
          <mxGeometry x="77" y="606" width="280" height="30" as="geometry" />
        </mxCell>
        <mxCell id="_yhk54UDYabE01hW2xC4-17" value="&lt;span style=&quot;color: rgb(0 , 0 , 0) ; font-family: &amp;#34;helvetica&amp;#34; ; font-size: 14px ; font-style: normal ; font-weight: 400 ; letter-spacing: normal ; text-align: left ; text-indent: 0px ; text-transform: none ; word-spacing: 0px ; background-color: rgb(248 , 249 , 250) ; display: inline ; float: none&quot;&gt;Immissione (&amp;nbsp;&lt;/span&gt;&lt;u style=&quot;color: rgb(0 , 0 , 0) ; font-family: &amp;#34;helvetica&amp;#34; ; font-size: 14px ; font-style: normal ; font-weight: 400 ; letter-spacing: normal ; text-align: left ; text-indent: 0px ; text-transform: none ; word-spacing: 0px ; background-color: rgb(248 , 249 , 250)&quot;&gt;Pianta&lt;/u&gt;&lt;span style=&quot;color: rgb(0 , 0 , 0) ; font-family: &amp;#34;helvetica&amp;#34; ; font-size: 14px ; font-style: normal ; font-weight: 400 ; letter-spacing: normal ; text-align: left ; text-indent: 0px ; text-transform: none ; word-spacing: 0px ; background-color: rgb(248 , 249 , 250)&quot;&gt;&amp;nbsp;&lt;/span&gt;&lt;span style=&quot;color: rgb(0 , 0 , 0) ; font-family: &amp;#34;helvetica&amp;#34; ; font-size: 14px ; font-style: normal ; font-weight: 400 ; letter-spacing: normal ; text-align: left ; text-indent: 0px ; text-transform: none ; word-spacing: 0px ; background-color: rgb(248 , 249 , 250) ; display: inline ; float: none&quot;&gt;,&amp;nbsp;&lt;u&gt;Pacco&lt;/u&gt;&amp;nbsp;, QuantitÃ )&lt;/span&gt;" style="text;whiteSpace=wrap;html=1;" vertex="1" parent="1">
          <mxGeometry x="539" y="686" width="260" height="30" as="geometry" />
        </mxCell>
        <mxCell id="_yhk54UDYabE01hW2xC4-18" value="&lt;span style=&quot;color: rgb(0 , 0 , 0) ; font-family: &amp;#34;helvetica&amp;#34; ; font-size: 14px ; font-style: normal ; font-weight: 400 ; letter-spacing: normal ; text-align: left ; text-indent: 0px ; text-transform: none ; word-spacing: 0px ; background-color: rgb(248 , 249 , 250) ; display: inline ; float: none&quot;&gt;Trattazione (&amp;nbsp;&lt;/span&gt;&lt;u style=&quot;color: rgb(0 , 0 , 0) ; font-family: &amp;#34;helvetica&amp;#34; ; font-size: 14px ; font-style: normal ; font-weight: 400 ; letter-spacing: normal ; text-align: left ; text-indent: 0px ; text-transform: none ; word-spacing: 0px ; background-color: rgb(248 , 249 , 250)&quot;&gt;Fornitore&lt;/u&gt;&lt;span style=&quot;color: rgb(0 , 0 , 0) ; font-family: &amp;#34;helvetica&amp;#34; ; font-size: 14px ; font-style: normal ; font-weight: 400 ; letter-spacing: normal ; text-align: left ; text-indent: 0px ; text-transform: none ; word-spacing: 0px ; background-color: rgb(248 , 249 , 250)&quot;&gt; &lt;/span&gt;&lt;u style=&quot;color: rgb(0 , 0 , 0) ; font-family: &amp;#34;helvetica&amp;#34; ; font-size: 14px ; font-style: normal ; font-weight: 400 ; letter-spacing: normal ; text-align: left ; text-indent: 0px ; text-transform: none ; word-spacing: 0px ; background-color: rgb(248 , 249 , 250)&quot;&gt;,&lt;/u&gt;&lt;span style=&quot;color: rgb(0 , 0 , 0) ; font-family: &amp;#34;helvetica&amp;#34; ; font-size: 14px ; font-style: normal ; font-weight: 400 ; letter-spacing: normal ; text-align: left ; text-indent: 0px ; text-transform: none ; word-spacing: 0px ; background-color: rgb(248 , 249 , 250)&quot;&gt; &lt;/span&gt;&lt;u style=&quot;color: rgb(0 , 0 , 0) ; font-family: &amp;#34;helvetica&amp;#34; ; font-size: 14px ; font-style: normal ; font-weight: 400 ; letter-spacing: normal ; text-align: left ; text-indent: 0px ; text-transform: none ; word-spacing: 0px ; background-color: rgb(248 , 249 , 250)&quot;&gt;Pianta&lt;/u&gt;&lt;span style=&quot;color: rgb(0 , 0 , 0) ; font-family: &amp;#34;helvetica&amp;#34; ; font-size: 14px ; font-style: normal ; font-weight: 400 ; letter-spacing: normal ; text-align: left ; text-indent: 0px ; text-transform: none ; word-spacing: 0px ; background-color: rgb(248 , 249 , 250)&quot;&gt;&amp;nbsp;&lt;/span&gt;&lt;span style=&quot;color: rgb(0 , 0 , 0) ; font-family: &amp;#34;helvetica&amp;#34; ; font-size: 14px ; font-style: normal ; font-weight: 400 ; letter-spacing: normal ; text-align: left ; text-indent: 0px ; text-transform: none ; word-spacing: 0px ; background-color: rgb(248 , 249 , 250) ; display: inline ; float: none&quot;&gt;)&lt;/span&gt;" style="text;whiteSpace=wrap;html=1;" vertex="1" parent="1">
          <mxGeometry x="77" y="926" width="210" height="30" as="geometry" />
        </mxCell>
        <mxCell id="_yhk54UDYabE01hW2xC4-19" value="&lt;span style=&quot;color: rgb(0 , 0 , 0) ; font-family: &amp;#34;helvetica&amp;#34; ; font-size: 14px ; font-style: normal ; font-weight: 400 ; letter-spacing: normal ; text-align: left ; text-indent: 0px ; text-transform: none ; word-spacing: 0px ; background-color: rgb(248 , 249 , 250) ; display: inline ; float: none&quot;&gt;Tipologia (&amp;nbsp;&lt;/span&gt;&lt;u style=&quot;color: rgb(0 , 0 , 0) ; font-family: &amp;#34;helvetica&amp;#34; ; font-size: 14px ; font-style: normal ; font-weight: 400 ; letter-spacing: normal ; text-align: left ; text-indent: 0px ; text-transform: none ; word-spacing: 0px ; background-color: rgb(248 , 249 , 250)&quot;&gt;Pianta&lt;/u&gt;&lt;span style=&quot;color: rgb(0 , 0 , 0) ; font-family: &amp;#34;helvetica&amp;#34; ; font-size: 14px ; font-style: normal ; font-weight: 400 ; letter-spacing: normal ; text-align: left ; text-indent: 0px ; text-transform: none ; word-spacing: 0px ; background-color: rgb(248 , 249 , 250)&quot;&gt; &lt;/span&gt;&lt;u style=&quot;color: rgb(0 , 0 , 0) ; font-family: &amp;#34;helvetica&amp;#34; ; font-size: 14px ; font-style: normal ; font-weight: 400 ; letter-spacing: normal ; text-align: left ; text-indent: 0px ; text-transform: none ; word-spacing: 0px ; background-color: rgb(248 , 249 , 250)&quot;&gt;,&lt;/u&gt;&lt;span style=&quot;color: rgb(0 , 0 , 0) ; font-family: &amp;#34;helvetica&amp;#34; ; font-size: 14px ; font-style: normal ; font-weight: 400 ; letter-spacing: normal ; text-align: left ; text-indent: 0px ; text-transform: none ; word-spacing: 0px ; background-color: rgb(248 , 249 , 250)&quot;&gt; &lt;/span&gt;&lt;u style=&quot;color: rgb(0 , 0 , 0) ; font-family: &amp;#34;helvetica&amp;#34; ; font-size: 14px ; font-style: normal ; font-weight: 400 ; letter-spacing: normal ; text-align: left ; text-indent: 0px ; text-transform: none ; word-spacing: 0px ; background-color: rgb(248 , 249 , 250)&quot;&gt;TipoPianta&lt;/u&gt;&lt;span style=&quot;color: rgb(0 , 0 , 0) ; font-family: &amp;#34;helvetica&amp;#34; ; font-size: 14px ; font-style: normal ; font-weight: 400 ; letter-spacing: normal ; text-align: left ; text-indent: 0px ; text-transform: none ; word-spacing: 0px ; background-color: rgb(248 , 249 , 250)&quot;&gt;&amp;nbsp;&lt;/span&gt;&lt;span style=&quot;color: rgb(0 , 0 , 0) ; font-family: &amp;#34;helvetica&amp;#34; ; font-size: 14px ; font-style: normal ; font-weight: 400 ; letter-spacing: normal ; text-align: left ; text-indent: 0px ; text-transform: none ; word-spacing: 0px ; background-color: rgb(248 , 249 , 250) ; display: inline ; float: none&quot;&gt;)&lt;/span&gt;" style="text;whiteSpace=wrap;html=1;" vertex="1" parent="1">
          <mxGeometry x="39" y="766" width="210" height="30" as="geometry" />
        </mxCell>
        <mxCell id="_yhk54UDYabE01hW2xC4-20" value="&lt;span style=&quot;color: rgb(0 , 0 , 0) ; font-family: &amp;#34;helvetica&amp;#34; ; font-size: 14px ; font-style: normal ; font-weight: 400 ; letter-spacing: normal ; text-align: left ; text-indent: 0px ; text-transform: none ; word-spacing: 0px ; background-color: rgb(248 , 249 , 250) ; display: inline ; float: none&quot;&gt;Colorazione (&amp;nbsp;&lt;/span&gt;&lt;u style=&quot;color: rgb(0 , 0 , 0) ; font-family: &amp;#34;helvetica&amp;#34; ; font-size: 14px ; font-style: normal ; font-weight: 400 ; letter-spacing: normal ; text-align: left ; text-indent: 0px ; text-transform: none ; word-spacing: 0px ; background-color: rgb(248 , 249 , 250)&quot;&gt;Pianta&lt;/u&gt;&lt;span style=&quot;color: rgb(0 , 0 , 0) ; font-family: &amp;#34;helvetica&amp;#34; ; font-size: 14px ; font-style: normal ; font-weight: 400 ; letter-spacing: normal ; text-align: left ; text-indent: 0px ; text-transform: none ; word-spacing: 0px ; background-color: rgb(248 , 249 , 250)&quot;&gt; &lt;/span&gt;&lt;u style=&quot;color: rgb(0 , 0 , 0) ; font-family: &amp;#34;helvetica&amp;#34; ; font-size: 14px ; font-style: normal ; font-weight: 400 ; letter-spacing: normal ; text-align: left ; text-indent: 0px ; text-transform: none ; word-spacing: 0px ; background-color: rgb(248 , 249 , 250)&quot;&gt;,&lt;/u&gt;&lt;span style=&quot;color: rgb(0 , 0 , 0) ; font-family: &amp;#34;helvetica&amp;#34; ; font-size: 14px ; font-style: normal ; font-weight: 400 ; letter-spacing: normal ; text-align: left ; text-indent: 0px ; text-transform: none ; word-spacing: 0px ; background-color: rgb(248 , 249 , 250)&quot;&gt; &lt;/span&gt;&lt;u style=&quot;color: rgb(0 , 0 , 0) ; font-family: &amp;#34;helvetica&amp;#34; ; font-size: 14px ; font-style: normal ; font-weight: 400 ; letter-spacing: normal ; text-align: left ; text-indent: 0px ; text-transform: none ; word-spacing: 0px ; background-color: rgb(248 , 249 , 250)&quot;&gt;Colorito&lt;/u&gt;&lt;span style=&quot;color: rgb(0 , 0 , 0) ; font-family: &amp;#34;helvetica&amp;#34; ; font-size: 14px ; font-weight: 400 ; letter-spacing: normal ; text-align: left ; text-indent: 0px ; text-transform: none ; word-spacing: 0px ; background-color: rgb(248 , 249 , 250)&quot;&gt;&amp;nbsp;&lt;/span&gt;&lt;span style=&quot;color: rgb(0 , 0 , 0) ; font-family: &amp;#34;helvetica&amp;#34; ; font-size: 14px ; font-style: normal ; font-weight: 400 ; letter-spacing: normal ; text-align: left ; text-indent: 0px ; text-transform: none ; word-spacing: 0px ; background-color: rgb(248 , 249 , 250) ; display: inline ; float: none&quot;&gt;)&lt;/span&gt;" style="text;whiteSpace=wrap;html=1;" vertex="1" parent="1">
          <mxGeometry x="614" y="766" width="210" height="30" as="geometry" />
        </mxCell>
        <mxCell id="_yhk54UDYabE01hW2xC4-22" value="" style="rounded=0;whiteSpace=wrap;html=1;fillColor=none;" vertex="1" parent="1">
          <mxGeometry x="564" y="293" width="46" height="20" as="geometry" />
        </mxCell>
        <mxCell id="_yhk54UDYabE01hW2xC4-23" value="" style="rounded=0;whiteSpace=wrap;html=1;fillColor=none;" vertex="1" parent="1">
          <mxGeometry x="597" y="211" width="138" height="20" as="geometry" />
        </mxCell>
        <mxCell id="_yhk54UDYabE01hW2xC4-24" value="" style="rounded=0;whiteSpace=wrap;html=1;fillColor=none;" vertex="1" parent="1">
          <mxGeometry x="479" y="211" width="110" height="20" as="geometry" />
        </mxCell>
        <mxCell id="_yhk54UDYabE01hW2xC4-25" value="" style="rounded=0;whiteSpace=wrap;html=1;fillColor=none;" vertex="1" parent="1">
          <mxGeometry x="573" y="131" width="65" height="20" as="geometry" />
        </mxCell>
        <mxCell id="_yhk54UDYabE01hW2xC4-26" value="" style="rounded=0;whiteSpace=wrap;html=1;fillColor=none;" vertex="1" parent="1">
          <mxGeometry x="377" y="372" width="110" height="20" as="geometry" />
        </mxCell>
        <mxCell id="_yhk54UDYabE01hW2xC4-27" value="" style="rounded=0;whiteSpace=wrap;html=1;fillColor=none;" vertex="1" parent="1">
          <mxGeometry x="495" y="531" width="125" height="20" as="geometry" />
        </mxCell>
        <mxCell id="_yhk54UDYabE01hW2xC4-28" value="" style="rounded=0;whiteSpace=wrap;html=1;fillColor=none;" vertex="1" parent="1">
          <mxGeometry x="438" y="531" width="50" height="20" as="geometry" />
        </mxCell>
        <mxCell id="_yhk54UDYabE01hW2xC4-29" value="" style="rounded=0;whiteSpace=wrap;html=1;fillColor=none;" vertex="1" parent="1">
          <mxGeometry x="260" y="531" width="70" height="20" as="geometry" />
        </mxCell>
        <mxCell id="_yhk54UDYabE01hW2xC4-30" value="" style="rounded=0;whiteSpace=wrap;html=1;fillColor=none;" vertex="1" parent="1">
          <mxGeometry x="184" y="611" width="45" height="20" as="geometry" />
        </mxCell>
        <mxCell id="_yhk54UDYabE01hW2xC4-31" value="" style="rounded=0;whiteSpace=wrap;html=1;fillColor=none;" vertex="1" parent="1">
          <mxGeometry x="237" y="611" width="45" height="20" as="geometry" />
        </mxCell>
        <mxCell id="_yhk54UDYabE01hW2xC4-32" value="" style="rounded=0;whiteSpace=wrap;html=1;fillColor=none;" vertex="1" parent="1">
          <mxGeometry x="621.5" y="691" width="45" height="20" as="geometry" />
        </mxCell>
        <mxCell id="_yhk54UDYabE01hW2xC4-33" value="" style="rounded=0;whiteSpace=wrap;html=1;fillColor=none;" vertex="1" parent="1">
          <mxGeometry x="672" y="691" width="45" height="20" as="geometry" />
        </mxCell>
        <mxCell id="_yhk54UDYabE01hW2xC4-34" value="" style="rounded=0;whiteSpace=wrap;html=1;fillColor=none;" vertex="1" parent="1">
          <mxGeometry x="703" y="611" width="45" height="20" as="geometry" />
        </mxCell>
        <mxCell id="_yhk54UDYabE01hW2xC4-35" value="" style="rounded=0;whiteSpace=wrap;html=1;fillColor=none;" vertex="1" parent="1">
          <mxGeometry x="107" y="771" width="45" height="20" as="geometry" />
        </mxCell>
        <mxCell id="_yhk54UDYabE01hW2xC4-36" value="" style="rounded=0;whiteSpace=wrap;html=1;fillColor=none;" vertex="1" parent="1">
          <mxGeometry x="159" y="771" width="70" height="20" as="geometry" />
        </mxCell>
        <mxCell id="_yhk54UDYabE01hW2xC4-37" value="" style="rounded=0;whiteSpace=wrap;html=1;fillColor=none;" vertex="1" parent="1">
          <mxGeometry x="315" y="771" width="45" height="20" as="geometry" />
        </mxCell>
        <mxCell id="_yhk54UDYabE01hW2xC4-38" value="" style="rounded=0;whiteSpace=wrap;html=1;fillColor=none;" vertex="1" parent="1">
          <mxGeometry x="701" y="771" width="45" height="20" as="geometry" />
        </mxCell>
        <mxCell id="_yhk54UDYabE01hW2xC4-39" value="" style="rounded=0;whiteSpace=wrap;html=1;fillColor=none;" vertex="1" parent="1">
          <mxGeometry x="751" y="771" width="55" height="20" as="geometry" />
        </mxCell>
        <mxCell id="_yhk54UDYabE01hW2xC4-40" value="" style="rounded=0;whiteSpace=wrap;html=1;fillColor=none;" vertex="1" parent="1">
          <mxGeometry x="226" y="931" width="45" height="20" as="geometry" />
        </mxCell>
        <mxCell id="_yhk54UDYabE01hW2xC4-41" value="" style="rounded=0;whiteSpace=wrap;html=1;fillColor=none;" vertex="1" parent="1">
          <mxGeometry x="159.5" y="931" width="60" height="20" as="geometry" />
        </mxCell>
        <mxCell id="_yhk54UDYabE01hW2xC4-42" value="" style="rounded=0;whiteSpace=wrap;html=1;fillColor=none;" vertex="1" parent="1">
          <mxGeometry x="616" y="931" width="45" height="20" as="geometry" />
        </mxCell>
        <mxCell id="_yhk54UDYabE01hW2xC4-43" value="" style="rounded=0;whiteSpace=wrap;html=1;fillColor=none;" vertex="1" parent="1">
          <mxGeometry x="549" y="931" width="60" height="20" as="geometry" />
        </mxCell>
        <mxCell id="_yhk54UDYabE01hW2xC4-44" value="" style="rounded=0;whiteSpace=wrap;html=1;fillColor=none;" vertex="1" parent="1">
          <mxGeometry x="516.5" y="851" width="90" height="20" as="geometry" />
        </mxCell>
        <mxCell id="_yhk54UDYabE01hW2xC4-45" value="" style="endArrow=classic;html=1;rounded=0;entryX=0.133;entryY=0.003;entryDx=0;entryDy=0;entryPerimeter=0;exitX=0.5;exitY=0;exitDx=0;exitDy=0;" edge="1" parent="1" source="_yhk54UDYabE01hW2xC4-25" target="_yhk54UDYabE01hW2xC4-5">
          <mxGeometry width="50" height="50" relative="1" as="geometry">
            <mxPoint x="606" y="130" as="sourcePoint" />
            <mxPoint x="193.25" y="190.08000000000004" as="targetPoint" />
            <Array as="points">
              <mxPoint x="607" y="100" />
              <mxPoint x="157" y="100" />
              <mxPoint x="157" y="180" />
            </Array>
          </mxGeometry>
        </mxCell>
        <mxCell id="_yhk54UDYabE01hW2xC4-47" value="" style="endArrow=classic;html=1;rounded=0;exitX=0.5;exitY=0;exitDx=0;exitDy=0;entryX=0.428;entryY=0.974;entryDx=0;entryDy=0;entryPerimeter=0;" edge="1" parent="1" source="_yhk54UDYabE01hW2xC4-24" target="_yhk54UDYabE01hW2xC4-7">
          <mxGeometry width="50" height="50" relative="1" as="geometry">
            <mxPoint x="527" y="190" as="sourcePoint" />
            <mxPoint x="577" y="170" as="targetPoint" />
            <Array as="points">
              <mxPoint x="534" y="180" />
              <mxPoint x="377" y="180" />
            </Array>
          </mxGeometry>
        </mxCell>
        <mxCell id="_yhk54UDYabE01hW2xC4-48" value="" style="endArrow=classic;html=1;rounded=0;exitX=0.5;exitY=0;exitDx=0;exitDy=0;entryX=0.384;entryY=1.022;entryDx=0;entryDy=0;entryPerimeter=0;" edge="1" parent="1" source="_yhk54UDYabE01hW2xC4-26" target="_yhk54UDYabE01hW2xC4-6">
          <mxGeometry width="50" height="50" relative="1" as="geometry">
            <mxPoint x="407" y="350" as="sourcePoint" />
            <mxPoint x="457" y="300" as="targetPoint" />
            <Array as="points">
              <mxPoint x="432" y="330" />
              <mxPoint x="367" y="330" />
            </Array>
          </mxGeometry>
        </mxCell>
        <mxCell id="_yhk54UDYabE01hW2xC4-49" value="" style="endArrow=classic;html=1;rounded=0;exitX=0.5;exitY=1;exitDx=0;exitDy=0;entryX=0.075;entryY=-0.003;entryDx=0;entryDy=0;entryPerimeter=0;" edge="1" parent="1" source="_yhk54UDYabE01hW2xC4-23" target="_yhk54UDYabE01hW2xC4-4">
          <mxGeometry width="50" height="50" relative="1" as="geometry">
            <mxPoint x="447" y="320" as="sourcePoint" />
            <mxPoint x="107" y="340" as="targetPoint" />
            <Array as="points">
              <mxPoint x="667" y="250" />
              <mxPoint x="117" y="250" />
            </Array>
          </mxGeometry>
        </mxCell>
        <mxCell id="_yhk54UDYabE01hW2xC4-50" value="" style="endArrow=classic;html=1;rounded=0;exitX=0.5;exitY=0;exitDx=0;exitDy=0;entryX=0.102;entryY=0.012;entryDx=0;entryDy=0;entryPerimeter=0;" edge="1" parent="1" source="_yhk54UDYabE01hW2xC4-22" target="_yhk54UDYabE01hW2xC4-4">
          <mxGeometry width="50" height="50" relative="1" as="geometry">
            <mxPoint x="497" y="290" as="sourcePoint" />
            <mxPoint x="137" y="350" as="targetPoint" />
            <Array as="points">
              <mxPoint x="587" y="270" />
              <mxPoint x="137" y="270" />
            </Array>
          </mxGeometry>
        </mxCell>
        <mxCell id="_yhk54UDYabE01hW2xC4-55" value="" style="endArrow=classic;html=1;rounded=0;exitX=0.5;exitY=1;exitDx=0;exitDy=0;entryX=0.25;entryY=0;entryDx=0;entryDy=0;" edge="1" parent="1" source="_yhk54UDYabE01hW2xC4-1" target="_yhk54UDYabE01hW2xC4-3">
          <mxGeometry width="50" height="50" relative="1" as="geometry">
            <mxPoint x="357" y="430" as="sourcePoint" />
            <mxPoint x="367" y="440" as="targetPoint" />
            <Array as="points">
              <mxPoint x="557" y="410" />
              <mxPoint x="313" y="410" />
            </Array>
          </mxGeometry>
        </mxCell>
        <mxCell id="_yhk54UDYabE01hW2xC4-56" value="" style="endArrow=classic;html=1;rounded=0;exitX=0.5;exitY=1;exitDx=0;exitDy=0;entryX=0.309;entryY=-0.052;entryDx=0;entryDy=0;entryPerimeter=0;" edge="1" parent="1" source="_yhk54UDYabE01hW2xC4-2" target="_yhk54UDYabE01hW2xC4-3">
          <mxGeometry width="50" height="50" relative="1" as="geometry">
            <mxPoint x="427" y="390" as="sourcePoint" />
            <mxPoint x="477" y="340" as="targetPoint" />
            <Array as="points">
              <mxPoint x="692" y="420" />
              <mxPoint x="336" y="420" />
            </Array>
          </mxGeometry>
        </mxCell>
        <mxCell id="_yhk54UDYabE01hW2xC4-57" value="" style="endArrow=classic;html=1;rounded=0;exitX=0.5;exitY=0;exitDx=0;exitDy=0;entryX=0.107;entryY=-0.01;entryDx=0;entryDy=0;entryPerimeter=0;" edge="1" parent="1" source="_yhk54UDYabE01hW2xC4-29" target="_yhk54UDYabE01hW2xC4-5">
          <mxGeometry width="50" height="50" relative="1" as="geometry">
            <mxPoint x="307" y="480" as="sourcePoint" />
            <mxPoint x="47" y="490" as="targetPoint" />
            <Array as="points">
              <mxPoint x="295" y="510" />
              <mxPoint x="47" y="510" />
              <mxPoint x="47" y="170" />
              <mxPoint x="137" y="170" />
            </Array>
          </mxGeometry>
        </mxCell>
        <mxCell id="_yhk54UDYabE01hW2xC4-58" value="" style="endArrow=classic;html=1;rounded=0;exitX=0.5;exitY=0;exitDx=0;exitDy=0;" edge="1" parent="1" source="_yhk54UDYabE01hW2xC4-28">
          <mxGeometry width="50" height="50" relative="1" as="geometry">
            <mxPoint x="267" y="520" as="sourcePoint" />
            <mxPoint x="127" y="400" as="targetPoint" />
            <Array as="points">
              <mxPoint x="463" y="500" />
              <mxPoint x="127" y="500" />
            </Array>
          </mxGeometry>
        </mxCell>
        <mxCell id="_yhk54UDYabE01hW2xC4-59" value="" style="endArrow=classic;html=1;rounded=0;exitX=0.5;exitY=0;exitDx=0;exitDy=0;entryX=0.25;entryY=1;entryDx=0;entryDy=0;" edge="1" parent="1" source="_yhk54UDYabE01hW2xC4-27" target="_yhk54UDYabE01hW2xC4-3">
          <mxGeometry width="50" height="50" relative="1" as="geometry">
            <mxPoint x="487" y="510" as="sourcePoint" />
            <mxPoint x="537" y="460" as="targetPoint" />
            <Array as="points">
              <mxPoint x="557" y="490" />
              <mxPoint x="313" y="490" />
            </Array>
          </mxGeometry>
        </mxCell>
        <mxCell id="_yhk54UDYabE01hW2xC4-61" value="" style="endArrow=classic;html=1;rounded=0;exitX=0.54;exitY=-0.012;exitDx=0;exitDy=0;exitPerimeter=0;entryX=0.151;entryY=0.85;entryDx=0;entryDy=0;entryPerimeter=0;" edge="1" parent="1" source="_yhk54UDYabE01hW2xC4-34" target="_yhk54UDYabE01hW2xC4-8">
          <mxGeometry width="50" height="50" relative="1" as="geometry">
            <mxPoint x="257" y="670" as="sourcePoint" />
            <mxPoint x="207" y="570" as="targetPoint" />
            <Array as="points">
              <mxPoint x="727" y="580" />
              <mxPoint x="207" y="580" />
            </Array>
          </mxGeometry>
        </mxCell>
        <mxCell id="_yhk54UDYabE01hW2xC4-62" value="" style="endArrow=classic;html=1;rounded=0;exitX=0.5;exitY=0;exitDx=0;exitDy=0;entryX=0.313;entryY=-0.008;entryDx=0;entryDy=0;entryPerimeter=0;" edge="1" parent="1" source="_yhk54UDYabE01hW2xC4-32" target="_yhk54UDYabE01hW2xC4-12">
          <mxGeometry width="50" height="50" relative="1" as="geometry">
            <mxPoint x="367" y="720" as="sourcePoint" />
            <mxPoint x="157" y="670" as="targetPoint" />
            <Array as="points">
              <mxPoint x="644" y="670" />
              <mxPoint x="200" y="670" />
            </Array>
          </mxGeometry>
        </mxCell>
        <mxCell id="_yhk54UDYabE01hW2xC4-63" value="" style="endArrow=classic;html=1;rounded=0;exitX=0.554;exitY=0.016;exitDx=0;exitDy=0;exitPerimeter=0;" edge="1" parent="1" source="_yhk54UDYabE01hW2xC4-33">
          <mxGeometry width="50" height="50" relative="1" as="geometry">
            <mxPoint x="697" y="690" as="sourcePoint" />
            <mxPoint x="647" y="640" as="targetPoint" />
            <Array as="points">
              <mxPoint x="697" y="660" />
              <mxPoint x="647" y="660" />
            </Array>
          </mxGeometry>
        </mxCell>
        <mxCell id="_yhk54UDYabE01hW2xC4-64" value="" style="endArrow=classic;html=1;rounded=0;exitX=0.5;exitY=0;exitDx=0;exitDy=0;entryX=0.135;entryY=1.018;entryDx=0;entryDy=0;entryPerimeter=0;" edge="1" parent="1" source="_yhk54UDYabE01hW2xC4-35" target="_yhk54UDYabE01hW2xC4-12">
          <mxGeometry width="50" height="50" relative="1" as="geometry">
            <mxPoint x="247" y="750" as="sourcePoint" />
            <mxPoint x="297" y="700" as="targetPoint" />
          </mxGeometry>
        </mxCell>
        <mxCell id="_yhk54UDYabE01hW2xC4-65" value="" style="endArrow=classic;html=1;rounded=0;exitX=0.5;exitY=0;exitDx=0;exitDy=0;" edge="1" parent="1" source="_yhk54UDYabE01hW2xC4-37">
          <mxGeometry width="50" height="50" relative="1" as="geometry">
            <mxPoint x="247" y="750" as="sourcePoint" />
            <mxPoint x="157" y="720" as="targetPoint" />
            <Array as="points">
              <mxPoint x="337" y="750" />
              <mxPoint x="157" y="750" />
            </Array>
          </mxGeometry>
        </mxCell>
        <mxCell id="_yhk54UDYabE01hW2xC4-66" value="" style="endArrow=classic;html=1;rounded=0;exitX=0.5;exitY=0;exitDx=0;exitDy=0;" edge="1" parent="1" source="_yhk54UDYabE01hW2xC4-38">
          <mxGeometry width="50" height="50" relative="1" as="geometry">
            <mxPoint x="347" y="720" as="sourcePoint" />
            <mxPoint x="177" y="720" as="targetPoint" />
            <Array as="points">
              <mxPoint x="724" y="740" />
              <mxPoint x="177" y="740" />
            </Array>
          </mxGeometry>
        </mxCell>
        <mxCell id="_yhk54UDYabE01hW2xC4-67" value="" style="endArrow=classic;html=1;rounded=0;exitX=0.5;exitY=1;exitDx=0;exitDy=0;entryX=0.62;entryY=0.029;entryDx=0;entryDy=0;entryPerimeter=0;" edge="1" parent="1" source="_yhk54UDYabE01hW2xC4-39" target="_yhk54UDYabE01hW2xC4-14">
          <mxGeometry width="50" height="50" relative="1" as="geometry">
            <mxPoint x="677" y="850" as="sourcePoint" />
            <mxPoint x="727" y="800" as="targetPoint" />
            <Array as="points">
              <mxPoint x="779" y="820" />
              <mxPoint x="735" y="820" />
            </Array>
          </mxGeometry>
        </mxCell>
        <mxCell id="_yhk54UDYabE01hW2xC4-69" value="" style="endArrow=classic;html=1;rounded=0;exitX=0.5;exitY=0;exitDx=0;exitDy=0;" edge="1" parent="1" source="_yhk54UDYabE01hW2xC4-41">
          <mxGeometry width="50" height="50" relative="1" as="geometry">
            <mxPoint x="297" y="920" as="sourcePoint" />
            <mxPoint x="317" y="880" as="targetPoint" />
            <Array as="points">
              <mxPoint x="190" y="910" />
              <mxPoint x="317" y="910" />
            </Array>
          </mxGeometry>
        </mxCell>
        <mxCell id="_yhk54UDYabE01hW2xC4-70" value="" style="endArrow=classic;html=1;rounded=0;exitX=0.5;exitY=0;exitDx=0;exitDy=0;" edge="1" parent="1" source="_yhk54UDYabE01hW2xC4-43">
          <mxGeometry width="50" height="50" relative="1" as="geometry">
            <mxPoint x="377" y="920" as="sourcePoint" />
            <mxPoint x="347" y="880" as="targetPoint" />
            <Array as="points">
              <mxPoint x="579" y="910" />
              <mxPoint x="347" y="910" />
            </Array>
          </mxGeometry>
        </mxCell>
        <mxCell id="_yhk54UDYabE01hW2xC4-71" value="" style="endArrow=classic;html=1;rounded=0;exitX=0.5;exitY=1;exitDx=0;exitDy=0;entryX=0.151;entryY=-0.011;entryDx=0;entryDy=0;entryPerimeter=0;" edge="1" parent="1" source="_yhk54UDYabE01hW2xC4-40" target="_yhk54UDYabE01hW2xC4-12">
          <mxGeometry width="50" height="50" relative="1" as="geometry">
            <mxPoint x="307" y="920" as="sourcePoint" />
            <mxPoint x="137" y="680" as="targetPoint" />
            <Array as="points">
              <mxPoint x="249" y="970" />
              <mxPoint x="27" y="970" />
              <mxPoint x="27" y="670" />
              <mxPoint x="137" y="670" />
            </Array>
          </mxGeometry>
        </mxCell>
        <mxCell id="_yhk54UDYabE01hW2xC4-72" value="" style="endArrow=classic;html=1;rounded=0;exitX=0.466;exitY=1.024;exitDx=0;exitDy=0;exitPerimeter=0;entryX=0.202;entryY=0;entryDx=0;entryDy=0;entryPerimeter=0;" edge="1" parent="1" source="_yhk54UDYabE01hW2xC4-42" target="_yhk54UDYabE01hW2xC4-12">
          <mxGeometry width="50" height="50" relative="1" as="geometry">
            <mxPoint x="207" y="790" as="sourcePoint" />
            <mxPoint x="157" y="680" as="targetPoint" />
            <Array as="points">
              <mxPoint x="637" y="980" />
              <mxPoint x="337" y="980" />
              <mxPoint x="17" y="980" />
              <mxPoint x="17" y="820" />
              <mxPoint x="17" y="660" />
              <mxPoint x="157" y="660" />
            </Array>
          </mxGeometry>
        </mxCell>
        <mxCell id="_yhk54UDYabE01hW2xC4-73" value="" style="endArrow=classic;html=1;rounded=0;exitX=0.5;exitY=1;exitDx=0;exitDy=0;entryX=0.375;entryY=-0.018;entryDx=0;entryDy=0;entryPerimeter=0;" edge="1" parent="1" source="_yhk54UDYabE01hW2xC4-44" target="_yhk54UDYabE01hW2xC4-3">
          <mxGeometry width="50" height="50" relative="1" as="geometry">
            <mxPoint x="697" y="880" as="sourcePoint" />
            <mxPoint x="817" y="650" as="targetPoint" />
            <Array as="points">
              <mxPoint x="562" y="890" />
              <mxPoint x="817" y="890" />
              <mxPoint x="817" y="430" />
              <mxPoint x="362" y="430" />
            </Array>
          </mxGeometry>
        </mxCell>
        <mxCell id="_yhk54UDYabE01hW2xC4-74" value="" style="endArrow=classic;html=1;rounded=0;exitX=0.577;exitY=-0.026;exitDx=0;exitDy=0;entryX=0.106;entryY=0.85;entryDx=0;entryDy=0;entryPerimeter=0;exitPerimeter=0;" edge="1" parent="1" source="_yhk54UDYabE01hW2xC4-30" target="_yhk54UDYabE01hW2xC4-8">
          <mxGeometry width="50" height="50" relative="1" as="geometry">
            <mxPoint x="200" y="570" as="sourcePoint" />
            <mxPoint x="180" y="570" as="targetPoint" />
            <Array as="points">
              <mxPoint x="210" y="590" />
              <mxPoint x="180" y="590" />
            </Array>
          </mxGeometry>
        </mxCell>
        <mxCell id="_yhk54UDYabE01hW2xC4-76" value="" style="endArrow=classic;html=1;rounded=0;exitX=0.5;exitY=1;exitDx=0;exitDy=0;entryX=0.261;entryY=0.007;entryDx=0;entryDy=0;entryPerimeter=0;" edge="1" parent="1" source="_yhk54UDYabE01hW2xC4-31" target="_yhk54UDYabE01hW2xC4-12">
          <mxGeometry width="50" height="50" relative="1" as="geometry">
            <mxPoint x="280" y="650" as="sourcePoint" />
            <mxPoint x="180" y="680" as="targetPoint" />
            <Array as="points">
              <mxPoint x="260" y="660" />
              <mxPoint x="180" y="660" />
            </Array>
          </mxGeometry>
        </mxCell>
        <mxCell id="_yhk54UDYabE01hW2xC4-77" value="" style="endArrow=classic;html=1;rounded=0;exitX=0.5;exitY=1;exitDx=0;exitDy=0;entryX=0.727;entryY=0.133;entryDx=0;entryDy=0;entryPerimeter=0;" edge="1" parent="1" source="_yhk54UDYabE01hW2xC4-36" target="_yhk54UDYabE01hW2xC4-13">
          <mxGeometry width="50" height="50" relative="1" as="geometry">
            <mxPoint x="240" y="840" as="sourcePoint" />
            <mxPoint x="170" y="830" as="targetPoint" />
            <Array as="points">
              <mxPoint x="194" y="810" />
              <mxPoint x="170" y="810" />
            </Array>
          </mxGeometry>
        </mxCell>
      </root>
    </mxGraphModel>
  </diagram>
</mxfile>
